<svg width="135" height="117" viewBox="0 0 135 117" fill="none" xmlns="http://www.w3.org/2000/svg">
    <path d="M67.664 0L45.282 38.812L90.082 38.787L67.664 0Z" fill="#DCEFF6"/>
    <path d="M45.256 38.7999L22.877 77.6129L67.677 77.5879L45.256 38.7999Z" fill="#BBDFF1"/>
    <path d="M90.07 38.7739L67.691 77.5859L112.491 77.5609L90.07 38.7739Z" fill="#4489C8"/>
    <path d="M0.490967 116.443L45.291 116.418L22.87 77.631L0.490967 116.443Z" fill="#3664A0"/>
    <path d="M45.306 116.418L90.106 116.393L67.683 77.606L45.306 116.418Z" fill="#86B8E3"/>
    <path d="M90.121 116.393L134.921 116.368L112.498 77.5809L90.121 116.393Z" fill="#3664A0"/>
    <path d="M67.685 77.542L45.262 38.755L90.062 38.73L67.685 77.542Z" fill="#86B8E3"/>
    <path d="M22.876 77.5869L45.299 116.374L67.678 77.5619L22.876 77.5869Z" fill="#DCEFF6"/>
    <path d="M67.691 77.561L90.113 116.349L112.492 77.537L67.691 77.561Z" fill="#DCEFF6"/>
</svg>